HIERARCHY
ROOT root
{
	OFFSET	0	13.1	24.9
	CHANNELS 6  Xposition Yposition Zposition Xrotation Yrotation Zrotation
	JOINT spine_1
	{
		OFFSET	0	9.99999	0
		CHANNELS 3  Xrotation Yrotation Zrotation
		JOINT spine_2
		{
			OFFSET	0	112	-10
			CHANNELS 3  Xrotation Yrotation Zrotation
			JOINT spine_3
			{
				OFFSET	0	206.5	19.3
				CHANNELS 3  Xrotation Yrotation Zrotation
				JOINT spine_4
				{
					OFFSET	0	110.4	14.6
					CHANNELS 3  Xrotation Yrotation Zrotation
					JOINT neck_1
					{
						OFFSET	0	71.8	-50.3
						CHANNELS 3  Xrotation Yrotation Zrotation
						JOINT neck_2
						{
							OFFSET	0	86.2	-25.8
							CHANNELS 3  Xrotation Yrotation Zrotation
							JOINT head_ee
							{
								OFFSET	0	179.8	-8.7
								CHANNELS 3  Xrotation Yrotation Zrotation
								End Site
								{
									OFFSET	1	0	0
								}
							}
						}
					}
					JOINT left_clavicle
					{
						OFFSET	-43.2	22.4	-70.8
						CHANNELS 3  Xrotation Yrotation Zrotation
						JOINT left_shoulder
						{
							OFFSET	-93.9	-5.79999	48.7
							CHANNELS 3  Xrotation Yrotation Zrotation
							JOINT left_elbow
							{
								OFFSET	-291.4	-30.8	15.2
								CHANNELS 3  Xrotation Yrotation Zrotation
								JOINT left_lowarm_twist
								{
									OFFSET	-110.7	-3.89999	13.6
									CHANNELS 3  Xrotation Yrotation Zrotation
									JOINT left_hand
									{
										OFFSET	-110.7	-3.89999	13.6
										CHANNELS 3  Xrotation Yrotation Zrotation
										JOINT left_ee
										{
											OFFSET	-80.8	-5.10001	12.1
											CHANNELS 3  Xrotation Yrotation Zrotation
											End Site
											{
												OFFSET	1	0	0
											}
										}
									}
								}
							}
						}
					}
					JOINT right_clavicle
					{
						OFFSET	43.2	22.4	-70.8
						CHANNELS 3  Xrotation Yrotation Zrotation
						JOINT right_shoulder
						{
							OFFSET	93.9	-5.79999	48.7
							CHANNELS 3  Xrotation Yrotation Zrotation
							JOINT right_elbow
							{
								OFFSET	291.4	-30.8	15.2
								CHANNELS 3  Xrotation Yrotation Zrotation
								JOINT right_lowarm_twist
								{
									OFFSET	110.7	-3.89999	13.6
									CHANNELS 3  Xrotation Yrotation Zrotation
									JOINT right_hand
									{
										OFFSET	110.7	-3.89999	13.6
										CHANNELS 3  Xrotation Yrotation Zrotation
										JOINT right_ee
										{
											OFFSET	80.8	-5.10001	12.1
											CHANNELS 3  Xrotation Yrotation Zrotation
											End Site
											{
												OFFSET	1	0	0
											}
										}
									}
								}
							}
						}
					}
				}
			}
		}
	}
	JOINT left_hip
	{
		OFFSET	-82.8	-127.5	0.300001
		CHANNELS 3  Xrotation Yrotation Zrotation
		JOINT left_knee
		{
			OFFSET	-28.2	-396.7	2.2
			CHANNELS 3  Xrotation Yrotation Zrotation
			JOINT left_ankle
			{
				OFFSET	-11.7	-411.3	35.4
				CHANNELS 3  Xrotation Yrotation Zrotation
				JOINT left_toes
				{
					OFFSET	0	-60	-88.6
					CHANNELS 3  Xrotation Yrotation Zrotation
					JOINT left_foot_ee
					{
						OFFSET	-22.5	-16.5	-42.2
						CHANNELS 3  Xrotation Yrotation Zrotation
						End Site
						{
							OFFSET	1	0	0
						}
					}
				}
			}
		}
	}
	JOINT right_hip
	{
		OFFSET	82.8	-127.5	0.300001
		CHANNELS 3  Xrotation Yrotation Zrotation
		JOINT right_knee
		{
			OFFSET	28.2	-396.7	2.2
			CHANNELS 3  Xrotation Yrotation Zrotation
			JOINT right_ankle
			{
				OFFSET	11.7	-411.3	35.4
				CHANNELS 3  Xrotation Yrotation Zrotation
				JOINT right_toes
				{
					OFFSET	0	-60	-88.6
					CHANNELS 3  Xrotation Yrotation Zrotation
					JOINT right_foot_ee
					{
						OFFSET	22.5	-16.5	-42.2
						CHANNELS 3  Xrotation Yrotation Zrotation
						End Site
						{
							OFFSET	1	0	0
						}
					}
				}
			}
		}
	}
}
MOTION
Frames: 9
Frame Time: 0.02
3177.02 653.055 -1669.29 -4.28594720111 23.7447929815 11.9944203913 1.03638 -0.580739 -2.30593 1.03923 -0.432871 -2.33819 1.0578 0.0242245 -2.37777 1.05009 -0.351499 -2.35179 4.23808 5.22728 -2.58501 4.42897 11.2566 -2.64227 -0.0 0.0 -0.0 7.16658 12.772 13.5358 -50.2321 -49.4911 51.5254 0.39207 -10.9914 0.0377224 58.2664 -1.62204 -6.94572 -1.85955 0.493233 -12.2898 -0.0 0.0 -0.0 9.56204 9.58436 -18.8847 -5.29419 26.0651 -45.5242 1.8584 42.6284 -0.725146 50.5836 1.0109 6.17507 1.79499 13.1214 -6.51597 0.0 0.0 0.0 34.4048 4.73177 -10.497 0.561476 -0.0235275 -0.0829495 8.56885 -12.536 -1.30664 -32.2645 0.0 0.0 -0.0 0.0 -0.0 -17.0516 -5.78305 -15.9018 2.49881 0.110937 0.367351 39.6324 7.83359 4.94864 -37.5799 0.0 0.0 0.0 0.0 0.0 
3156.47479822 653.838 -1695.90227506 -3.33282235915 23.7438088574 11.3778226345 0.99973 -0.595697 -2.29299 1.00254 -0.448621 -2.32623 1.0217 0.0079494 -2.36905 1.01405 -0.366194 -2.34061 4.00065 5.32575 -2.40814 4.18447 11.2856 -2.41426 -0.0 0.0 -0.0 6.64841 14.0898 12.5813 -52.0287 -50.3156 49.8749 0.438685 -12.2606 0.0471168 58.1417 -1.6113 -6.93388 -1.58267 -0.66694 -10.9351 -0.0 0.0 -0.0 8.98464 6.24856 -17.6715 -6.67727 24.6275 -46.95 1.87217 42.8391 -0.734489 49.067 0.902829 6.01375 1.98391 12.7013 -7.98425 0.0 0.0 0.0 33.6314 4.59327 -10.8782 -3.00443 0.111991 0.447432 13.4564 -14.8738 -2.04431 -31.2331 0.0 0.0 -0.0 0.0 -0.0 -19.3803 -4.66144 -14.9112 3.15493 0.142718 0.462993 39.3686 4.97984 4.87656 -37.214 0.0 0.0 0.0 0.0 0.0 
3156.34007741 653.838 -1695.79772155 -3.34031393849 24.0339381151 11.3963219446 0.99973 -0.595697 -2.29299 1.00254 -0.448621 -2.32623 1.0217 0.0079494 -2.36905 1.01405 -0.366194 -2.34061 4.00065 5.32575 -2.40814 4.18447 11.2856 -2.41426 -0.0 0.0 -0.0 6.64841 14.0898 12.5813 -52.0287 -50.3156 49.8749 0.438685 -12.2606 0.0471168 58.1417 -1.6113 -6.93388 -1.58267 -0.66694 -10.9351 -0.0 0.0 -0.0 8.98464 6.24856 -17.6715 -6.67727 24.6275 -46.95 1.87217 42.8391 -0.734489 49.067 0.902829 6.01375 1.98391 12.7013 -7.98425 0.0 0.0 0.0 33.6314 4.59327 -10.8782 -3.00443 0.111991 0.447432 13.4564 -14.8738 -2.04431 -31.2331 0.0 0.0 -0.0 0.0 -0.0 -19.3803 -4.66144 -14.9112 3.15493 0.142718 0.462993 39.3686 4.97984 4.87656 -37.214 0.0 0.0 0.0 0.0 0.0 
3145.70646537 651.574 -1723.99155984 -2.12165025205 24.1666907204 11.4498351091 0.880007 -0.508557 -2.36107 0.883037 -0.357329 -2.38863 0.898951 0.11481 -2.41246 0.890929 -0.267522 -2.40034 3.49516 5.18286 -2.00988 3.64814 10.7212 -1.92727 -0.0 0.0 -0.0 6.2782 15.595 11.8937 -53.2292 -50.8924 48.5834 0.446051 -12.4601 0.0486936 57.9455 -1.59447 -6.9152 -1.39005 -1.47903 -9.99077 -0.0 0.0 -0.0 8.56938 3.41689 -16.7913 -7.6533 23.6223 -48.0446 1.87413 42.869 -0.735821 48.0253 0.831096 5.90132 2.11348 12.3793 -9.00973 0.0 0.0 0.0 32.6796 4.5508 -10.738 -5.8376 0.195955 0.874083 16.5669 -17.661 -2.53451 -30.5113 0.0 0.0 -0.0 0.0 -0.0 -20.9095 -3.95925 -14.1188 2.21311 0.0974412 0.325593 39.6578 2.75309 4.87232 -36.9618 0.0 0.0 0.0 0.0 0.0 
3121.37246761 647.098 -1755.76666586 -1.24420237157 24.3911656823 10.4873570023 0.881217 -0.449682 -2.40194 0.884378 -0.295976 -2.42566 0.897899 0.182306 -2.43684 0.889671 -0.204717 -2.43506 4.53391 5.60972 -1.06382 4.67731 10.5823 -0.913602 -0.0 0.0 -0.0 6.194 17.6149 11.659 -53.7961 -51.5288 48.0993 0.453034 -12.6489 0.0502116 57.1066 -1.52321 -6.83469 -1.09306 -2.27689 -8.32841 -0.0 0.0 -0.0 8.31478 1.29936 -16.2436 -9.68698 22.5205 -48.9748 1.82395 42.0948 -0.701933 46.318 0.718005 5.71434 2.60277 12.6957 -12.215 0.0 0.0 0.0 31.4291 4.7755 -10.531 -11.7211 0.302421 1.77024 20.5301 -19.5674 -3.12693 -29.106 0.0 0.0 -0.0 0.0 -0.0 -21.4183 -3.55141 -13.8908 -1.73195 -0.0674281 -0.257232 40.3516 1.91515 4.92278 -36.1083 0.0 0.0 0.0 0.0 0.0 
3101.78372789 654.837 -1780.98549972 -1.41452514605 25.1751715853 10.1115290399 1.01395 -0.510183 -2.39432 1.01707 -0.356838 -2.42191 1.03307 0.116052 -2.44529 1.02483 -0.271476 -2.43295 4.80291 6.05263 0.112973 4.9254 10.3006 0.433505 -0.0 0.0 -0.0 6.27885 19.0412 11.713 -52.393 -52.2254 46.812 0.495414 -13.7888 0.0599032 56.4855 -1.47122 -6.77442 -0.840517 -2.44068 -6.69019 -0.0 0.0 -0.0 8.02651 -0.119529 -15.6379 -11.1335 21.4948 -49.6016 1.78741 41.5187 -0.677569 45.1266 0.642416 5.58191 2.9042 12.3829 -14.4416 0.0 0.0 0.0 29.2396 4.92954 -10.969 -16.0695 0.321733 2.43697 23.3183 -20.4134 -3.52204 -28.0832 0.0 0.0 -0.0 0.0 -0.0 -21.3336 -3.31014 -13.8244 -4.73695 -0.165845 -0.707858 39.3926 0.501645 4.82722 -35.516 0.0 0.0 0.0 0.0 0.0 
3101.38742647 654.837 -1780.71753305 -1.41689964767 25.3786417821 10.1170900103 1.01395 -0.510183 -2.39432 1.01707 -0.356838 -2.42191 1.03307 0.116052 -2.44529 1.02483 -0.271476 -2.43295 4.80291 6.05263 0.112973 4.9254 10.3006 0.433505 -0.0 0.0 -0.0 6.27885 19.0412 11.713 -52.393 -52.2254 46.812 0.495414 -13.7888 0.0599032 56.4855 -1.47122 -6.77442 -0.840517 -2.44068 -6.69019 -0.0 0.0 -0.0 8.02651 -0.119529 -15.6379 -11.1335 21.4948 -49.6016 1.78741 41.5187 -0.677569 45.1266 0.642416 5.58191 2.9042 12.3829 -14.4416 0.0 0.0 0.0 29.2396 4.92954 -10.969 -16.0695 0.321733 2.43697 23.3183 -20.4134 -3.52204 -28.0832 0.0 0.0 -0.0 0.0 -0.0 -21.3336 -3.31014 -13.8244 -4.73695 -0.165845 -0.707858 39.3926 0.501645 4.82722 -35.516 0.0 0.0 0.0 0.0 0.0 
3087.33764818 659.719 -1802.93954573 -0.822419344161 25.5320880467 9.76350573633 0.893251 -0.570131 -2.49769 0.896628 -0.410094 -2.52888 0.915882 0.0895828 -2.56033 0.906873 -0.315764 -2.54237 4.40582 6.30242 1.03495 4.50978 9.96648 1.51875 -0.0 0.0 -0.0 7.0629 20.1755 12.8371 -49.8332 -53.0897 45.0968 0.521874 -14.495 0.0663682 56.1685 -1.44494 -6.74344 -0.663741 -2.55028 -5.54404 -0.0 0.0 -0.0 7.84653 -1.65349 -15.2494 -12.8934 20.4814 -50.4385 1.69508 40.0166 -0.617278 44.114 0.58036 5.46816 3.09886 12.0049 -15.9735 0.0 0.0 0.0 27.4243 5.17716 -11.1752 -19.1478 0.304805 2.90892 25.2219 -20.9902 -3.78575 -27.4279 0.0 0.0 -0.0 0.0 -0.0 -20.2183 -3.4107 -14.398 -7.36566 -0.232449 -1.10573 38.6729 -0.534485 4.75622 -35.1279 0.0 0.0 0.0 0.0 0.0 
3086.6448064 659.719 -1802.47201711 -0.824475531346 25.8295994883 9.76825049984 0.893251 -0.570131 -2.49769 0.896628 -0.410094 -2.52888 0.915882 0.0895828 -2.56033 0.906873 -0.315764 -2.54237 4.40582 6.30242 1.03495 4.50978 9.96648 1.51875 -0.0 0.0 -0.0 7.0629 20.1755 12.8371 -49.8332 -53.0897 45.0968 0.521874 -14.495 0.0663682 56.1685 -1.44494 -6.74344 -0.663741 -2.55028 -5.54404 -0.0 0.0 -0.0 7.84653 -1.65349 -15.2494 -12.8934 20.4814 -50.4385 1.69508 40.0166 -0.617278 44.114 0.58036 5.46816 3.09886 12.0049 -15.9735 0.0 0.0 0.0 27.4243 5.17716 -11.1752 -19.1478 0.304805 2.90892 25.2219 -20.9902 -3.78575 -27.4279 0.0 0.0 -0.0 0.0 -0.0 -20.2183 -3.4107 -14.398 -7.36566 -0.232449 -1.10573 38.6729 -0.534485 4.75622 -35.1279 0.0 0.0 0.0 0.0 0.0 
